<svg id="Componente_43_6" data-name="Componente 43 – 6" xmlns="http://www.w3.org/2000/svg" width="20" height="20.034" viewBox="0 0 20 20.034">
  <circle id="Elipse_20" data-name="Elipse 20" cx="8" cy="8" r="8" transform="translate(0)" fill="#fff"/>
  <path id="Trazado_57" data-name="Trazado 57" d="M897.564,509.678l-4.63-4.63a8.037,8.037,0,1,0-2.7,2.686l4.638,4.637a1.612,1.612,0,0,0,2.28,0l.414-.414A1.612,1.612,0,0,0,897.564,509.678Zm-18.082-8.827a6.594,6.594,0,1,1,6.594,6.594A6.6,6.6,0,0,1,879.482,500.85Zm17.059,10.085-.414.414a.166.166,0,0,1-.235,0l-4.435-4.435.649-.649,4.435,4.435A.166.166,0,0,1,896.541,510.935Z" transform="translate(-878.036 -492.81)" fill="#337eff"/>
</svg>
