<svg id="mis-respuestas" xmlns="http://www.w3.org/2000/svg" width="22.624" height="24" viewBox="0 0 22.624 24">
  <circle id="Elipse_27" data-name="Elipse 27" cx="1.622" cy="1.622" r="1.622" transform="translate(4.852 7.622)" fill="#3d3d3d"/>
  <circle id="Elipse_28" data-name="Elipse 28" cx="1.622" cy="1.622" r="1.622" transform="translate(9.65 7.622)" fill="#3d3d3d"/>
  <circle id="Elipse_29" data-name="Elipse 29" cx="1.622" cy="1.622" r="1.622" transform="translate(14.448 7.622)" fill="#3d3d3d"/>
  <path id="Trazado_72" data-name="Trazado 72" d="M98.529,733.158H84.839a4.458,4.458,0,0,0-4.467,4.447v9.5a4.458,4.458,0,0,0,4.467,4.447h3.922l8.4,5.605v-5.605h1.366A4.457,4.457,0,0,0,103,747.106v-9.5A4.457,4.457,0,0,0,98.529,733.158Zm2.792,13.948a2.788,2.788,0,0,1-2.792,2.779H95.488v4.148l-5.794-3.866-.423-.282H84.839a2.788,2.788,0,0,1-2.792-2.779v-9.5a2.789,2.789,0,0,1,2.792-2.779h13.69a2.789,2.789,0,0,1,2.792,2.779Z" transform="translate(-80.372 -733.158)" fill="#3d3d3d"/>
</svg>
