<svg id="BORRAR" xmlns="http://www.w3.org/2000/svg" width="21.923" height="23.626" viewBox="0 0 21.923 23.626">
  <path id="Trazado_36" data-name="Trazado 36" d="M304.475,750.341h-4.725v-.893A1.448,1.448,0,0,0,298.3,748h-6.682a1.448,1.448,0,0,0-1.448,1.448v.893h-4.725A1.448,1.448,0,0,0,284,751.789v1.787a1.448,1.448,0,0,0,1.448,1.448h.042v15.154a1.448,1.448,0,0,0,1.448,1.448h16.048a1.448,1.448,0,0,0,1.448-1.448V755.024h.042a1.448,1.448,0,0,0,1.448-1.448v-1.787A1.448,1.448,0,0,0,304.475,750.341Zm-12.6-.639h6.173v.639h-6.173Zm-6.173,2.341h18.518v1.277H285.7Zm17.028,17.879H287.193v-14.9h15.538Z" transform="translate(-284 -748)" fill="#337eff"/>
  <path id="Trazado_37" data-name="Trazado 37" d="M313.851,801.365a.851.851,0,0,0,.851-.851v-7.663a.851.851,0,0,0-1.7,0v7.663A.851.851,0,0,0,313.851,801.365Z" transform="translate(-306.827 -782.635)" fill="#337eff"/>
  <path id="Trazado_38" data-name="Trazado 38" d="M332.351,801.365a.851.851,0,0,0,.851-.851v-7.663a.851.851,0,1,0-1.7,0v7.663A.851.851,0,0,0,332.351,801.365Z" transform="translate(-321.39 -782.635)" fill="#337eff"/>
  <path id="Trazado_39" data-name="Trazado 39" d="M350.851,801.365a.851.851,0,0,0,.851-.851v-7.663a.851.851,0,0,0-1.7,0v7.663A.851.851,0,0,0,350.851,801.365Z" transform="translate(-335.952 -782.635)" fill="#337eff"/>
</svg>
