<svg xmlns="http://www.w3.org/2000/svg" width="16" height="16" viewBox="0 0 16 16">
  <g id="EDITAR" transform="translate(0 0)">
    <path id="Trazado_40" data-name="Trazado 40" d="M509.778,753.985l-2.012-2.01a1.168,1.168,0,0,0-1.65,0L495.58,762.5a19.706,19.706,0,0,0-1.434,4.043.88.88,0,0,0,.851,1.09.9.9,0,0,0,.219-.027,19.827,19.827,0,0,0,4.026-1.448l10.536-10.525A1.165,1.165,0,0,0,509.778,753.985ZM496.169,764l1.575,1.573c-.647.246-1.553.555-2.344.778C495.62,765.56,495.925,764.651,496.169,764Zm2.617.969-2.015-2.013,10.17-10.16h0l2.012,2.013Z" transform="translate(-494.12 -751.634)" fill="#828282"/>
  </g>
</svg>
