<svg id="incio" xmlns="http://www.w3.org/2000/svg" width="24" height="20.047" viewBox="0 0 24 20.047">
  <path id="Trazado_62" data-name="Trazado 62" d="M292.948,362.327,281.636,351.31a.571.571,0,0,0-.787,0l-11.569,11.016a.54.54,0,0,0,.391.929h3.393v6.718a1.229,1.229,0,0,0,1.229,1.229H287.91a1.229,1.229,0,0,0,1.229-1.229v-6.718h3.414A.54.54,0,0,0,292.948,362.327Zm-5.254,7.426H274.51v-6.5h13.184Zm-15.776-7.947,1.147-1.093,2.646-2.519,5.523-5.259,5.4,5.259,2.5,2.439,1.2,1.173Z" transform="translate(-269.112 -351.151)" fill="#3d3d3d"/>
</svg>
