<svg id="Componente_47_7" data-name="Componente 47 – 7" xmlns="http://www.w3.org/2000/svg" width="24" height="20" viewBox="0 0 24 20">
  <g id="Grupo_143" data-name="Grupo 143">
    <path id="Trazado_53" data-name="Trazado 53" d="M507.627,1092.667H485.373a.834.834,0,1,1,0-1.667h22.255a.834.834,0,1,1,0,1.667Z" transform="translate(-484.5 -1091)" fill="#fff"/>
  </g>
  <g id="Grupo_144" data-name="Grupo 144" transform="translate(0 9.375)">
    <path id="Trazado_54" data-name="Trazado 54" d="M507.627,1137.667H485.373a.834.834,0,1,1,0-1.667h22.255a.834.834,0,1,1,0,1.667Z" transform="translate(-484.5 -1136)" fill="#fff"/>
  </g>
  <g id="Grupo_145" data-name="Grupo 145" transform="translate(0 18.333)">
    <path id="Trazado_55" data-name="Trazado 55" d="M507.627,1180.667H485.373a.834.834,0,1,1,0-1.667h22.255a.834.834,0,1,1,0,1.667Z" transform="translate(-484.5 -1179)" fill="#fff"/>
  </g>
</svg>
