<svg xmlns="http://www.w3.org/2000/svg" width="26.896" height="36" viewBox="0 0 26.896 36">
  <path id="Unión_6" data-name="Unión 6" d="M4.911,35a1.7,1.7,0,0,1-1.736-1.669V16.563a1.823,1.823,0,0,1-.313.031,1.752,1.752,0,0,1-1.48-.793L.259,14.048a1.632,1.632,0,0,1,.567-2.3L5.649,8.9,5.087,8.02a1.631,1.631,0,0,1,.568-2.3l6.821-4.04a1.779,1.779,0,0,1,.909-.248,1.753,1.753,0,0,1,1.48.793l.562.876L20.25.248A1.777,1.777,0,0,1,21.159,0a1.752,1.752,0,0,1,1.48.793l1.124,1.753a1.631,1.631,0,0,1-.567,2.3L7.89,13.907H24.155a1.7,1.7,0,0,1,1.736,1.668V33.331A1.7,1.7,0,0,1,24.155,35Zm.306-1.962H23.85V15.869H5.217Zm9.8-27.387-3.411,2.02-9.452,5.6.8,1.253,18.9-11.2-.8-1.253ZM6.986,7.24l.4.626L10.538,6l3.151-1.866-.4-.626ZM18.234,28.378V19.545a1.022,1.022,0,0,1,2.042,0v8.833a1.022,1.022,0,0,1-2.042,0Zm-4.722,0V19.545a1.022,1.022,0,0,1,2.042,0v8.833a1.022,1.022,0,0,1-2.042,0Zm-4.722,0V19.545a1.022,1.022,0,0,1,2.042,0v8.833a1.022,1.022,0,0,1-2.042,0Z" transform="translate(0.505 0.5)" fill="#3d3d3d" stroke="rgba(0,0,0,0)" stroke-miterlimit="10" stroke-width="1"/>
</svg>
