<svg id="preguntas" xmlns="http://www.w3.org/2000/svg" width="18.896" height="20.047" viewBox="0 0 18.896 20.047">
  <path id="Trazado_59" data-name="Trazado 59" d="M85.243,366.515H84.1A3.723,3.723,0,0,1,80.37,362.8v-7.935a3.723,3.723,0,0,1,3.731-3.714H95.535a3.723,3.723,0,0,1,3.731,3.714V362.8a3.723,3.723,0,0,1-3.731,3.714H92.26L85.242,371.2Z" transform="translate(-80.37 -351.151)" fill="none"/>
  <path id="Trazado_60" data-name="Trazado 60" d="M86.643,368.586l4.84-3.229.353-.236h3.7a2.329,2.329,0,0,0,2.332-2.321v-7.936a2.329,2.329,0,0,0-2.332-2.321H84.1a2.329,2.329,0,0,0-2.332,2.321V362.8a2.329,2.329,0,0,0,2.332,2.321h2.54v3.465m-1.4,2.61v-4.682H84.1a3.723,3.723,0,0,1-3.731-3.714v-7.936a3.723,3.723,0,0,1,3.731-3.714H95.537a3.723,3.723,0,0,1,3.731,3.714V362.8a3.723,3.723,0,0,1-3.731,3.714H92.262Z" transform="translate(-80.372 -351.151)" fill="#3d3d3d"/>
  <path id="Trazado_61" data-name="Trazado 61" d="M117.763,372.29a.378.378,0,0,0,.5.174,4.438,4.438,0,0,1,1.81-.455,1.43,1.43,0,0,1,.839.213.714.714,0,0,1,.3.621,1.112,1.112,0,0,1-.21.659,3.927,3.927,0,0,1-.867.766,3.369,3.369,0,0,0-.939.948,2.065,2.065,0,0,0-.257,1.048v.088a.377.377,0,0,0,.377.377h.9a.377.377,0,0,0,.377-.377,1.055,1.055,0,0,1,.16-.609,3.68,3.68,0,0,1,.76-.678,4.467,4.467,0,0,0,1.189-1.13,2.208,2.208,0,0,0,.313-1.193,2.032,2.032,0,0,0-.76-1.657,3.143,3.143,0,0,0-2.05-.621,5.908,5.908,0,0,0-2.623.608.378.378,0,0,0-.173.508Z" transform="translate(-110.689 -366.976)" fill="#3d3d3d"/>
  <ellipse id="Elipse_21" data-name="Elipse 21" cx="0.994" cy="0.993" rx="0.994" ry="0.993" transform="translate(8.067 10.696)" fill="#3d3d3d"/>
</svg>
