<svg id="TIP" xmlns="http://www.w3.org/2000/svg" width="12.829" height="16" viewBox="0 0 12.829 16">
  <path id="Trazado_45" data-name="Trazado 45" d="M709.829,736.414a6.414,6.414,0,1,0-9.649,5.539,1,1,0,0,0-.009.127V743a.981.981,0,0,0,.981.981h4.525a.981.981,0,0,0,.981-.981v-.922a1,1,0,0,0-.009-.127A6.41,6.41,0,0,0,709.829,736.414Zm-3.763,4.543a1.159,1.159,0,0,0-.562,1.14v.731h-4.18V742.1a1.153,1.153,0,0,0-.562-1.14,5.261,5.261,0,1,1,5.3,0Z" transform="translate(-697 -730)" fill="#3d3d3d"/>
  <path id="Trazado_46" data-name="Trazado 46" d="M722.47,770.169a.576.576,0,0,0-.815,0l-1.178,1.178-1.178-1.178a.576.576,0,0,0-.8-.017l-1.323,1.213-1.2-1.2a.577.577,0,0,0-.815.815l1.586,1.586a.576.576,0,0,0,.8.017l1.323-1.213,1.2,1.2a.576.576,0,0,0,.815,0l1.586-1.586A.576.576,0,0,0,722.47,770.169Z" transform="translate(-712.405 -764.234)" fill="#3d3d3d"/>
  <path id="Trazado_47" data-name="Trazado 47" d="M728.468,833h-3.892a.577.577,0,1,0,0,1.153h3.892a.577.577,0,1,0,0-1.153Z" transform="translate(-720.108 -818.153)" fill="#3d3d3d"/>
</svg>
