<svg xmlns="http://www.w3.org/2000/svg" width="134.888" height="28.324" viewBox="0 0 134.888 28.324"><defs><style>.a{fill:#f8f8f8;}</style></defs><path class="a" d="M5.168,0H4.263V-12.006H.088v-.844H9.343v.844H5.168Zm6.8-9.554v6.188a3.022,3.022,0,0,0,.606,2.1,2.448,2.448,0,0,0,1.881.655,3.283,3.283,0,0,0,2.509-.861,4.033,4.033,0,0,0,.8-2.8V-9.554h.861V0H17.89l-.158-1.318h-.053A3.591,3.591,0,0,1,14.366.176Q11.1.176,11.1-3.313v-6.24ZM24.53-.6a6.527,6.527,0,0,0,1.441-.141v.7a4.612,4.612,0,0,1-1.459.211A2.375,2.375,0,0,1,22.645-.5a3.142,3.142,0,0,1-.6-2.127V-8.8H20.628v-.51l1.415-.4.439-2.162h.448v2.312h2.8V-8.8h-2.8v6.047a2.76,2.76,0,0,0,.387,1.626A1.4,1.4,0,0,0,24.53-.6ZM36.118-4.79a5.412,5.412,0,0,1-1.134,3.652A3.914,3.914,0,0,1,31.855.176a4.052,4.052,0,0,1-2.215-.606,3.879,3.879,0,0,1-1.468-1.74,6.33,6.33,0,0,1-.51-2.619A5.377,5.377,0,0,1,28.8-8.433a3.906,3.906,0,0,1,3.111-1.305A3.832,3.832,0,0,1,35-8.416,5.432,5.432,0,0,1,36.118-4.79Zm-7.541,0a4.862,4.862,0,0,0,.866,3.072,2.932,2.932,0,0,0,2.448,1.1,2.932,2.932,0,0,0,2.448-1.1A4.862,4.862,0,0,0,35.2-4.79a4.786,4.786,0,0,0-.875-3.067,2.971,2.971,0,0,0-2.457-1.09,2.926,2.926,0,0,0-2.439,1.085A4.852,4.852,0,0,0,28.577-4.79ZM42.705-9.738a7.477,7.477,0,0,1,1.3.123l-.167.835A5.091,5.091,0,0,0,42.6-8.93a2.406,2.406,0,0,0-2,1.037,4.228,4.228,0,0,0-.782,2.619V0h-.87V-9.554h.738l.088,1.723h.062a4.051,4.051,0,0,1,1.257-1.481A2.944,2.944,0,0,1,42.705-9.738Zm11.026,6.17A3.322,3.322,0,0,1,52.479-.826a5.441,5.441,0,0,1-3.485,1A8.184,8.184,0,0,1,45.355-.6V-3.129a15,15,0,0,0,2.2.817,6.515,6.515,0,0,0,1.648.237,2.343,2.343,0,0,0,1.375-.343,1.172,1.172,0,0,0,.479-1.02,1.125,1.125,0,0,0-.211-.672,2.36,2.36,0,0,0-.62-.567,15.936,15.936,0,0,0-1.666-.87A7.894,7.894,0,0,1,46.8-6.609a3.992,3.992,0,0,1-.94-1.187A3.386,3.386,0,0,1,45.5-9.378a3.321,3.321,0,0,1,1.156-2.681,4.8,4.8,0,0,1,3.195-.976,7.544,7.544,0,0,1,1.912.237,13.14,13.14,0,0,1,1.9.668l-.879,2.118a12.859,12.859,0,0,0-1.7-.589,5.474,5.474,0,0,0-1.323-.167,1.752,1.752,0,0,0-1.187.36,1.189,1.189,0,0,0-.413.94,1.164,1.164,0,0,0,.167.628,1.836,1.836,0,0,0,.532.519,16.441,16.441,0,0,0,1.727.9,6.872,6.872,0,0,1,2.47,1.727A3.371,3.371,0,0,1,53.731-3.568ZM65.1,0H62.419V-5.739q0-2.127-1.582-2.127a1.8,1.8,0,0,0-1.626.765,4.67,4.67,0,0,0-.5,2.479V0H56.029V-13.676H58.71v2.786q0,.325-.062,1.529l-.062.791h.141a3.105,3.105,0,0,1,2.848-1.441,3.482,3.482,0,0,1,2.628.932,3.7,3.7,0,0,1,.9,2.672Zm2.826-12.366q0-1.31,1.459-1.31t1.459,1.31a1.277,1.277,0,0,1-.365.971,1.533,1.533,0,0,1-1.094.347Q67.925-11.048,67.925-12.366ZM70.72,0H68.039V-9.826H70.72Zm8.389.176a3.259,3.259,0,0,1-2.716-1.257h-.141q.141,1.23.141,1.424V4.324H73.712V-9.826h2.18l.378,1.274h.123a3.1,3.1,0,0,1,2.786-1.459A3.189,3.189,0,0,1,81.9-8.666a6.219,6.219,0,0,1,.984,3.735A7.376,7.376,0,0,1,82.427-2.2,3.834,3.834,0,0,1,81.113-.431,3.367,3.367,0,0,1,79.109.176Zm-.791-8.042a1.693,1.693,0,0,0-1.45.611,3.507,3.507,0,0,0-.475,2.017v.29a4.14,4.14,0,0,0,.47,2.268A1.678,1.678,0,0,0,78.353-2q1.8,0,1.8-2.971a4.242,4.242,0,0,0-.444-2.175A1.515,1.515,0,0,0,78.318-7.866Z" transform="translate(52 24)"/><g transform="translate(-681.333 -215.939)"><path class="a" d="M1033.458,360l6.7,12.065L1046.186,360Z" transform="translate(-322.614 -131.99)"/><path class="a" d="M681.333,360l6.034,12.068h0L694.081,360Z" transform="translate(0 -131.99)"/><path class="a" d="M785.282,215.939l-6.855,12.073-6.707,12.058h27.093l-6.692-12.058Z" transform="translate(-82.812)"/></g></svg>